<svg xmlns="http://www.w3.org/2000/svg" width="18.15" height="16.32" viewBox="0 0 18.15 16.32" fill="none"><path d="M161.547 3687.25C161.547 3686.65 161.788 3686.06 162.218 3685.63C162.648 3685.2 163.231 3684.96 163.838 3684.96H176.213V3699.63H163.838C163.231 3699.63 162.648 3699.39 162.218 3698.96C161.788 3698.53 161.547 3697.94 161.547 3697.34V3687.25Z" stroke="#6B6B6B" stroke-width="1.65" stroke-linecap="round" stroke-linejoin="round" transform="translate(-160.72 -3684.14)"/><path d="M173.463 3690.46H178.047V3695.04H173.463C172.856 3695.04 172.273 3694.8 171.843 3694.37C171.413 3693.94 171.172 3693.36 171.172 3692.75C171.172 3692.15 171.413 3691.56 171.843 3691.13C172.273 3690.7 172.856 3690.46 173.463 3690.46Z" stroke="#6B6B6B" stroke-width="1.65" stroke-linecap="round" stroke-linejoin="round" transform="translate(-160.72 -3684.14)"/></svg>